<?xml version="1.0" standalone="no"?><!DOCTYPE svg PUBLIC "-//W3C//DTD SVG 1.1//EN"
        "http://www.w3.org/Graphics/SVG/1.1/DTD/svg11.dtd">
<svg class="icon" viewBox="0 0 1024 1024" version="1.1" xmlns="http://www.w3.org/2000/svg"
     width="200" height="200">
    <defs>
        <style type="text/css"/>
    </defs>
    <path d="M594.306654 78.921395m67.807141 0l291.336188 0q67.807142 0 67.807142 67.807141l0 291.336188q0 67.807142-67.807142 67.807142l-291.336188 0q-67.807142 0-67.807141-67.807142l0-291.336188q0-67.807142 67.807141-67.807141Z"
          fill="#333333"/>
    <path d="M594.306654 597.049529m70.111564 0l286.727342 0q70.111565 0 70.111565 70.111565l0 286.727341q0 70.111565-70.111565 70.111565l-286.727342 0q-70.111565 0-70.111564-70.111565l0-286.727341q0-70.111565 70.111564-70.111565Z"
          fill="#333333"/>
    <path d="M83.825941 597.049529m85.120905 0l256.708662 0q85.120905 0 85.120904 85.120905l0 256.708661q0 85.120905-85.120904 85.120905l-256.708662 0q-85.120905 0-85.120905-85.120905l0-256.708661q0-85.120905 85.120905-85.120905Z"
          fill="#333333"/>
    <path d="M444.906618 503.078008H63.657141A60.975445 60.975445 0 0 1 2.742875 442.163742V60.914265A60.975445 60.975445 0 0 1 63.657141 0h381.351442a60.975445 60.975445 0 0 1 60.914266 60.914265v381.351443a60.975445 60.975445 0 0 1-61.016231 60.8123zM78.870412 426.930078h350.761755v-350.761755h-350.761755z"
          fill="#333333"/>
</svg>