<?xml version="1.0" standalone="no"?><!DOCTYPE svg PUBLIC "-//W3C//DTD SVG 1.1//EN"
        "http://www.w3.org/Graphics/SVG/1.1/DTD/svg11.dtd">
<svg class="icon" viewBox="0 0 1024 1024" version="1.1" xmlns="http://www.w3.org/2000/svg"
     width="200" height="200">
    <defs>
        <style type="text/css"/>
    </defs>
    <path d="M955.16319 0h-186.345614a16.758764 16.758764 0 0 0-16.758765 16.758764v79.277101a19.41203 19.41203 0 0 1-19.300962 19.41203h-43.809731a19.41203 19.41203 0 0 1-19.41203-19.41203V15.968955A15.968955 15.968955 0 0 0 653.567133 0H372.283982a15.968955 15.968955 0 0 0-15.919592 15.968955v81.560143a17.918797 17.918797 0 0 1-17.918797 17.918797h-46.759174a17.931138 17.931138 0 0 1-17.931137-17.918797V16.758764A16.758764 16.758764 0 0 0 256.996517 0H68.824469A69.034263 69.034263 0 0 0 0 68.824469v886.338721a69.034263 69.034263 0 0 0 68.824469 68.83681h886.338721a69.034263 69.034263 0 0 0 68.83681-68.83681V68.824469A69.034263 69.034263 0 0 0 955.16319 0zM334.977837 812.553262H120.581655v-76.747243h214.396182z m0-156.727768H120.581655v-76.759584h214.396182z m0-154.259614H120.581655v-76.734903h214.396182z m0-148.681587H120.581655v-76.734902h214.396182z m279.172879 459.668969H399.742194v-76.747243h214.408522z m0-156.727768H399.742194v-76.759584h214.408522z m0-154.259614H399.742194v-76.734903h214.408522z m0-148.681587H399.742194v-76.734902h214.408522z m289.255288 459.668969H689.009822v-76.747243h214.396182z m0-156.727768H689.009822v-76.759584h214.396182z m0-154.259614H689.009822v-76.734903h214.396182z m0-148.681587H689.009822v-76.734902h214.396182z"
          fill="#2c2c2c"/>
</svg>