<?xml version="1.0" standalone="no"?><!DOCTYPE svg PUBLIC "-//W3C//DTD SVG 1.1//EN"
        "http://www.w3.org/Graphics/SVG/1.1/DTD/svg11.dtd">
<svg class="icon" viewBox="0 0 1024 1024" version="1.1" xmlns="http://www.w3.org/2000/svg"
     width="200" height="200">
    <defs>
        <style type="text/css"/>
    </defs>
    <path d="M905.0624 557.7728c-6.0928-50.8416-24.7808-148.736-81.5616-233.216-65.3824-97.2288-160.3584-149.8624-282.5728-156.8256v-49.3568c0-16.9472-13.7728-30.72-30.72-30.72s-30.72 13.7728-30.72 30.72v49.5616c-310.2208 19.0464-353.4336 304.9472-359.2192 394.7008-1.1776 18.0224 5.2736 35.9424 17.664 49.1008 12.3392 13.1584 29.7472 20.6848 47.8208 20.6848h0.1536l295.3216-0.6144v156.3136c0 50.6368-41.216 91.8016-91.8016 91.8016s-91.8016-41.216-91.8016-91.8016v-10.3936c0-16.9472-13.7728-30.72-30.72-30.72s-30.72 13.7728-30.72 30.72v10.3936c0 84.5312 68.7616 153.2416 153.2416 153.2416s153.2416-68.7616 153.2416-153.2416v-156.416l297.4208-0.6144c18.7392-0.0512 36.608-8.0896 48.9984-22.1184 12.3904-14.08 18.2272-32.7168 15.9744-51.2z m-61.952 10.3936c-0.5632 0.6656-1.5872 1.4336-3.1232 1.4336l-654.1824 1.3824c-1.1776 0-2.2016-0.4608-3.0208-1.28a4.03968 4.03968 0 0 1-1.1264-3.072C188.16 464.896 233.5744 228.352 512.7168 228.352c262.656 0 319.232 235.4688 331.3664 336.7424a4.0448 4.0448 0 0 1-0.9728 3.072z"
          fill="#FF6C39"/>

    <path d="M578.2016 324.608c-16.4864-3.7888-32.8704 6.4-36.7616 22.8864s6.2976 32.9728 22.7328 36.9664c3.7376 0.9216 91.1872 23.04 110.7456 111.5648 3.1744 14.336 15.872 24.1152 29.952 24.1152a30.65344 30.65344 0 0 0 30.0032-37.3248c-27.9552-127.0272-151.3984-156.9792-156.672-158.208z"
          fill="#FF6C39"/>
</svg>