<?xml version="1.0" standalone="no"?><!DOCTYPE svg PUBLIC "-//W3C//DTD SVG 1.1//EN"
        "http://www.w3.org/Graphics/SVG/1.1/DTD/svg11.dtd">
<svg class="icon" viewBox="0 0 1024 1024" version="1.1" xmlns="http://www.w3.org/2000/svg"
     width="200" height="200">
    <defs>
        <style type="text/css"/>
    </defs>
    <path d="M767.232 919.8592h-66.3552c-61.2352 0-111.0016-49.8176-111.0016-111.0016v-286.2592c0-16.9472 13.7728-30.72 30.72-30.72h226.9184c16.9472 0 30.72 13.7728 30.72 30.72v286.2592c0 61.2352-49.7664 111.0016-111.0016 111.0016z m-115.9168-366.5408v255.5392c0 27.3408 22.2208 49.5616 49.5616 49.5616h66.3552c27.3408 0 49.5616-22.2208 49.5616-49.5616v-255.5392h-165.4784z"
          fill="#FF6C39"/>
    <path d="M735.1808 538.0608c-16.9472 0-30.72-13.7728-30.72-30.72V129.6384c0-16.9472 13.7728-30.72 30.72-30.72s30.72 13.7728 30.72 30.72v377.7024c0 16.9472-13.7216 30.72-30.72 30.72zM345.2928 925.1328c-1.536 0-3.0208 0-4.5568-0.1024-65.792-2.3552-119.3472-58.88-119.3472-125.952V498.432c-63.232-41.7792-100.8128-111.4112-100.8128-187.4432 0-90.0096 53.4528-171.0592 136.192-206.5408 9.472-4.0448 20.3776-3.072 29.0304 2.6112s13.824 15.3088 13.824 25.6512v131.8912h91.2384V132.6592c0-10.3424 5.1712-19.968 13.824-25.6512a30.81216 30.81216 0 0 1 29.0304-2.6112 224.47616 224.47616 0 0 1 136.192 206.5408c0 76.032-37.5808 145.664-100.8128 187.4432v302.8992c0 33.8944-13.4656 65.536-37.8368 89.088-23.3472 22.528-53.7088 34.7648-85.9648 34.7648zM238.1824 187.6992a162.99008 162.99008 0 0 0-56.1664 123.2384c0 56.6784 28.7744 108.4416 76.9024 138.5472 14.9504 9.3696 23.9104 25.4464 23.9104 43.0592v306.5344c0 34.4064 26.9312 63.3856 60.0576 64.5632 17.152 0.4608 33.3312-5.5808 45.6192-17.4592a61.9008 61.9008 0 0 0 19.0464-44.9024V492.544c0-17.6128 8.96-33.6896 23.9104-43.0592 48.1792-30.0544 76.9024-81.8688 76.9024-138.5472 0-48.128-21.0432-92.7744-56.1664-123.2384v107.5712c0 16.9472-13.7728 30.72-30.72 30.72h-152.576c-16.9472 0-30.72-13.7728-30.72-30.72V187.6992z"
          fill="#FF6C39"/>
</svg>